HIERARCHY
ROOT root
{
	OFFSET	0	13.1	24.9
	CHANNELS 6  Xposition Yposition Zposition Xrotation Yrotation Zrotation
	JOINT spine_1
	{
		OFFSET	0	9.99999	0
		CHANNELS 3  Xrotation Yrotation Zrotation
		JOINT spine_2
		{
			OFFSET	0	112	-10
			CHANNELS 3  Xrotation Yrotation Zrotation
			JOINT spine_3
			{
				OFFSET	0	206.5	19.3
				CHANNELS 3  Xrotation Yrotation Zrotation
				JOINT spine_4
				{
					OFFSET	0	110.4	14.6
					CHANNELS 3  Xrotation Yrotation Zrotation
					JOINT neck_1
					{
						OFFSET	0	71.8	-50.3
						CHANNELS 3  Xrotation Yrotation Zrotation
						JOINT neck_2
						{
							OFFSET	0	86.2	-25.8
							CHANNELS 3  Xrotation Yrotation Zrotation
							JOINT head_ee
							{
								OFFSET	0	179.8	-8.7
								CHANNELS 3  Xrotation Yrotation Zrotation
								End Site
								{
									OFFSET	1	0	0
								}
							}
						}
					}
					JOINT left_clavicle
					{
						OFFSET	-43.2	22.4	-70.8
						CHANNELS 3  Xrotation Yrotation Zrotation
						JOINT left_shoulder
						{
							OFFSET	-93.9	-5.79999	48.7
							CHANNELS 3  Xrotation Yrotation Zrotation
							JOINT left_elbow
							{
								OFFSET	-291.4	-30.8	15.2
								CHANNELS 3  Xrotation Yrotation Zrotation
								JOINT left_lowarm_twist
								{
									OFFSET	-110.7	-3.89999	13.6
									CHANNELS 3  Xrotation Yrotation Zrotation
									JOINT left_hand
									{
										OFFSET	-110.7	-3.89999	13.6
										CHANNELS 3  Xrotation Yrotation Zrotation
										JOINT left_ee
										{
											OFFSET	-80.8	-5.10001	12.1
											CHANNELS 3  Xrotation Yrotation Zrotation
											End Site
											{
												OFFSET	1	0	0
											}
										}
									}
								}
							}
						}
					}
					JOINT right_clavicle
					{
						OFFSET	43.2	22.4	-70.8
						CHANNELS 3  Xrotation Yrotation Zrotation
						JOINT right_shoulder
						{
							OFFSET	93.9	-5.79999	48.7
							CHANNELS 3  Xrotation Yrotation Zrotation
							JOINT right_elbow
							{
								OFFSET	291.4	-30.8	15.2
								CHANNELS 3  Xrotation Yrotation Zrotation
								JOINT right_lowarm_twist
								{
									OFFSET	110.7	-3.89999	13.6
									CHANNELS 3  Xrotation Yrotation Zrotation
									JOINT right_hand
									{
										OFFSET	110.7	-3.89999	13.6
										CHANNELS 3  Xrotation Yrotation Zrotation
										JOINT right_ee
										{
											OFFSET	80.8	-5.10001	12.1
											CHANNELS 3  Xrotation Yrotation Zrotation
											End Site
											{
												OFFSET	1	0	0
											}
										}
									}
								}
							}
						}
					}
				}
			}
		}
	}
	JOINT left_hip
	{
		OFFSET	-82.8	-127.5	0.300001
		CHANNELS 3  Xrotation Yrotation Zrotation
		JOINT left_knee
		{
			OFFSET	-28.2	-396.7	2.2
			CHANNELS 3  Xrotation Yrotation Zrotation
			JOINT left_ankle
			{
				OFFSET	-11.7	-411.3	35.4
				CHANNELS 3  Xrotation Yrotation Zrotation
				JOINT left_toes
				{
					OFFSET	0	-60	-88.6
					CHANNELS 3  Xrotation Yrotation Zrotation
					JOINT left_foot_ee
					{
						OFFSET	-22.5	-16.5	-42.2
						CHANNELS 3  Xrotation Yrotation Zrotation
						End Site
						{
							OFFSET	1	0	0
						}
					}
				}
			}
		}
	}
	JOINT right_hip
	{
		OFFSET	82.8	-127.5	0.300001
		CHANNELS 3  Xrotation Yrotation Zrotation
		JOINT right_knee
		{
			OFFSET	28.2	-396.7	2.2
			CHANNELS 3  Xrotation Yrotation Zrotation
			JOINT right_ankle
			{
				OFFSET	11.7	-411.3	35.4
				CHANNELS 3  Xrotation Yrotation Zrotation
				JOINT right_toes
				{
					OFFSET	0	-60	-88.6
					CHANNELS 3  Xrotation Yrotation Zrotation
					JOINT right_foot_ee
					{
						OFFSET	22.5	-16.5	-42.2
						CHANNELS 3  Xrotation Yrotation Zrotation
						End Site
						{
							OFFSET	1	0	0
						}
					}
				}
			}
		}
	}
}
MOTION
Frames: 14
Frame Time: 0.02
3574.42 741.953 -1474.73 -165.948302939 82.7430913281 169.969283382 0.962411 -0.132117 -1.1397 0.963132 -0.0593324 -1.1458 0.964491 0.163738 -1.13559 0.962692 -0.01765 -1.1472 -11.6961 7.18707 0.916049 -11.7796 13.0228 2.88085 -0.0 0.0 -0.0 0.817605 13.6491 2.94617 -6.53115 -31.8664 65.1179 1.38701 -34.4904 0.430568 -83.3311 -8.24268 5.22251 -0.52696 1.71174 -2.78287 -0.0 0.0 -0.0 4.84506 19.8131 -8.11792 -14.7807 18.4616 -66.5079 0.71464 19.4946 -0.122764 23.2359 -0.225454 2.93934 0.0520929 -29.2063 -11.701 0.0 0.0 0.0 5.92392 31.5735 -8.18809 2.4909 -0.11056 -0.366196 4.39065 -0.968497 -0.643455 -5.14106 0.0 0.0 -0.0 0.0 -0.0 9.83962 -1.26095 -7.19328 -9.33449 -0.270337 -1.40546 4.90849 -3.99264 0.71098 -17.588 0.0 0.0 0.0 0.0 0.0 
3574.42 741.953 -1474.73 -164.751224061 83.3034727624 168.7632898 0.962411 -0.132117 -1.1397 0.963132 -0.0593324 -1.1458 0.964491 0.163738 -1.13559 0.962692 -0.01765 -1.1472 -11.6961 7.18707 0.916049 -11.7796 13.0228 2.88085 -0.0 0.0 -0.0 0.817605 13.6491 2.94617 -6.53115 -31.8664 65.1179 1.38701 -34.4904 0.430568 -83.3311 -8.24268 5.22251 -0.52696 1.71174 -2.78287 -0.0 0.0 -0.0 4.84506 19.8131 -8.11792 -14.7807 18.4616 -66.5079 0.71464 19.4946 -0.122764 23.2359 -0.225454 2.93934 0.0520929 -29.2063 -11.701 0.0 0.0 0.0 5.92392 31.5735 -8.18809 2.4909 -0.11056 -0.366196 4.39065 -0.968497 -0.643455 -5.14106 0.0 0.0 -0.0 0.0 -0.0 9.83962 -1.26095 -7.19328 -9.33449 -0.270337 -1.40546 4.90849 -3.99264 0.71098 -17.588 0.0 0.0 0.0 0.0 0.0 
3567.36521188 740.536 -1477.20366543 -167.635128625 81.9223942953 171.417333183 0.996125 -0.0991055 -1.13062 0.996836 -0.0269651 -1.13463 0.997519 0.192691 -1.11848 0.995774 0.0136412 -1.13487 -10.8472 7.44263 0.953564 -10.9194 13.4277 2.89009 -0.0 0.0 -0.0 0.600794 14.0242 2.62931 -7.07317 -31.8551 65.5706 1.40248 -34.7876 0.439364 -83.965 -8.32231 5.20883 -0.747725 0.805856 -4.64783 -0.0 0.0 -0.0 4.94913 19.1443 -8.4009 -14.2678 18.5691 -66.6481 0.660455 18.1166 -0.105296 23.2825 -0.224702 2.94525 -0.278094 -28.9384 -9.79952 0.0 0.0 0.0 6.48133 30.8281 -9.30739 -3.58222 0.130827 0.534104 11.3368 -2.43143 -1.6297 -5.43828 0.0 0.0 -0.0 0.0 -0.0 9.42201 -2.05049 -7.80181 -9.53352 -0.273593 -1.43583 7.45257 -5.75571 1.06916 -17.099 0.0 0.0 0.0 0.0 0.0 
3567.41665498 740.536 -1477.34576272 -165.602819567 83.0493636261 169.367523686 0.996125 -0.0991055 -1.13062 0.996836 -0.0269651 -1.13463 0.997519 0.192691 -1.11848 0.995774 0.0136412 -1.13487 -10.8472 7.44263 0.953564 -10.9194 13.4277 2.89009 -0.0 0.0 -0.0 0.600794 14.0242 2.62931 -7.07317 -31.8551 65.5706 1.40248 -34.7876 0.439364 -83.965 -8.32231 5.20883 -0.747725 0.805856 -4.64783 -0.0 0.0 -0.0 4.94913 19.1443 -8.4009 -14.2678 18.5691 -66.6481 0.660455 18.1166 -0.105296 23.2825 -0.224702 2.94525 -0.278094 -28.9384 -9.79952 0.0 0.0 0.0 6.48133 30.8281 -9.30739 -3.58222 0.130827 0.534104 11.3368 -2.43143 -1.6297 -5.43828 0.0 0.0 -0.0 0.0 -0.0 9.42201 -2.05049 -7.80181 -9.53352 -0.273593 -1.43583 7.45257 -5.75571 1.06916 -17.099 0.0 0.0 0.0 0.0 0.0 
3567.46409639 740.536 -1477.46942712 -163.191835741 84.0273095353 166.941218796 0.996125 -0.0991055 -1.13062 0.996836 -0.0269651 -1.13463 0.997519 0.192691 -1.11848 0.995774 0.0136412 -1.13487 -10.8472 7.44263 0.953564 -10.9194 13.4277 2.89009 -0.0 0.0 -0.0 0.600794 14.0242 2.62931 -7.07317 -31.8551 65.5706 1.40248 -34.7876 0.439364 -83.965 -8.32231 5.20883 -0.747725 0.805856 -4.64783 -0.0 0.0 -0.0 4.94913 19.1443 -8.4009 -14.2678 18.5691 -66.6481 0.660455 18.1166 -0.105296 23.2825 -0.224702 2.94525 -0.278094 -28.9384 -9.79952 0.0 0.0 0.0 6.48133 30.8281 -9.30739 -3.58222 0.130827 0.534104 11.3368 -2.43143 -1.6297 -5.43828 0.0 0.0 -0.0 0.0 -0.0 9.42201 -2.05049 -7.80181 -9.53352 -0.273593 -1.43583 7.45257 -5.75571 1.06916 -17.099 0.0 0.0 0.0 0.0 0.0 
3554.53465199 739.14 -1479.60419486 -169.652829934 83.4363462822 173.215557624 0.964131 -0.0414642 -1.07857 0.964777 0.0272477 -1.07902 0.964383 0.235757 -1.0533 0.962841 0.0664583 -1.07731 -10.7669 7.57535 0.94946 -10.8404 13.6759 2.91239 -0.0 0.0 -0.0 0.0708144 15.7931 1.96782 -8.24182 -31.6179 65.9131 1.41237 -34.9765 0.445021 -84.4697 -8.38557 5.1973 -0.957419 0.633289 -6.12741 -0.0 0.0 -0.0 5.01736 18.7156 -8.58468 -14.04 18.6359 -66.5079 0.653287 17.9327 -0.103078 23.4537 -0.221899 2.96693 -0.494032 -28.9393 -8.62353 0.0 0.0 0.0 7.63206 30.1488 -10.5441 -8.67845 0.258857 1.30545 14.0523 -2.57777 -1.99922 -6.07393 0.0 0.0 -0.0 0.0 -0.0 8.07297 -2.49259 -7.86624 -10.1004 -0.282289 -1.52239 10.1651 -7.22569 1.44414 -16.3636 0.0 0.0 0.0 0.0 0.0 
3554.67052574 739.14 -1480.12843567 -166.593006879 84.9200203378 170.14013593 0.964131 -0.0414642 -1.07857 0.964777 0.0272477 -1.07902 0.964383 0.235757 -1.0533 0.962841 0.0664583 -1.07731 -10.7669 7.57535 0.94946 -10.8404 13.6759 2.91239 -0.0 0.0 -0.0 0.0708144 15.7931 1.96782 -8.24182 -31.6179 65.9131 1.41237 -34.9765 0.445021 -84.4697 -8.38557 5.1973 -0.957419 0.633289 -6.12741 -0.0 0.0 -0.0 5.01736 18.7156 -8.58468 -14.04 18.6359 -66.5079 0.653287 17.9327 -0.103078 23.4537 -0.221899 2.96693 -0.494032 -28.9393 -8.62353 0.0 0.0 0.0 7.63206 30.1488 -10.5441 -8.67845 0.258857 1.30545 14.0523 -2.57777 -1.99922 -6.07393 0.0 0.0 -0.0 0.0 -0.0 8.07297 -2.49259 -7.86624 -10.1004 -0.282289 -1.52239 10.1651 -7.22569 1.44414 -16.3636 0.0 0.0 0.0 0.0 0.0 
3554.87661395 739.14 -1480.83253247 -157.832699951 86.8807897513 161.358724851 0.964131 -0.0414642 -1.07857 0.964777 0.0272477 -1.07902 0.964383 0.235757 -1.0533 0.962841 0.0664583 -1.07731 -10.7669 7.57535 0.94946 -10.8404 13.6759 2.91239 -0.0 0.0 -0.0 0.0708144 15.7931 1.96782 -8.24182 -31.6179 65.9131 1.41237 -34.9765 0.445021 -84.4697 -8.38557 5.1973 -0.957419 0.633289 -6.12741 -0.0 0.0 -0.0 5.01736 18.7156 -8.58468 -14.04 18.6359 -66.5079 0.653287 17.9327 -0.103078 23.4537 -0.221899 2.96693 -0.494032 -28.9393 -8.62353 0.0 0.0 0.0 7.63206 30.1488 -10.5441 -8.67845 0.258857 1.30545 14.0523 -2.57777 -1.99922 -6.07393 0.0 0.0 -0.0 0.0 -0.0 8.07297 -2.49259 -7.86624 -10.1004 -0.282289 -1.52239 10.1651 -7.22569 1.44414 -16.3636 0.0 0.0 0.0 0.0 0.0 
3555.14257237 739.14 -1481.62678367 -114.850059147 88.7035246489 118.352011493 0.964131 -0.0414642 -1.07857 0.964777 0.0272477 -1.07902 0.964383 0.235757 -1.0533 0.962841 0.0664583 -1.07731 -10.7669 7.57535 0.94946 -10.8404 13.6759 2.91239 -0.0 0.0 -0.0 0.0708144 15.7931 1.96782 -8.24182 -31.6179 65.9131 1.41237 -34.9765 0.445021 -84.4697 -8.38557 5.1973 -0.957419 0.633289 -6.12741 -0.0 0.0 -0.0 5.01736 18.7156 -8.58468 -14.04 18.6359 -66.5079 0.653287 17.9327 -0.103078 23.4537 -0.221899 2.96693 -0.494032 -28.9393 -8.62353 0.0 0.0 0.0 7.63206 30.1488 -10.5441 -8.67845 0.258857 1.30545 14.0523 -2.57777 -1.99922 -6.07393 0.0 0.0 -0.0 0.0 -0.0 8.07297 -2.49259 -7.86624 -10.1004 -0.282289 -1.52239 10.1651 -7.22569 1.44414 -16.3636 0.0 0.0 0.0 0.0 0.0 
3555.55782696 739.14 -1482.69261699 -23.8958600743 87.0947655075 27.364939211 0.964131 -0.0414642 -1.07857 0.964777 0.0272477 -1.07902 0.964383 0.235757 -1.0533 0.962841 0.0664583 -1.07731 -10.7669 7.57535 0.94946 -10.8404 13.6759 2.91239 -0.0 0.0 -0.0 0.0708144 15.7931 1.96782 -8.24182 -31.6179 65.9131 1.41237 -34.9765 0.445021 -84.4697 -8.38557 5.1973 -0.957419 0.633289 -6.12741 -0.0 0.0 -0.0 5.01736 18.7156 -8.58468 -14.04 18.6359 -66.5079 0.653287 17.9327 -0.103078 23.4537 -0.221899 2.96693 -0.494032 -28.9393 -8.62353 0.0 0.0 0.0 7.63206 30.1488 -10.5441 -8.67845 0.258857 1.30545 14.0523 -2.57777 -1.99922 -6.07393 0.0 0.0 -0.0 0.0 -0.0 8.07297 -2.49259 -7.86624 -10.1004 -0.282289 -1.52239 10.1651 -7.22569 1.44414 -16.3636 0.0 0.0 0.0 0.0 0.0 
3548.14245428 738.082 -1485.76019197 -5.42553628873 84.9522289393 8.72714747185 0.936831 0.0139975 -1.01537 0.937401 0.0785766 -1.01243 0.936101 0.2737 -0.977893 0.934785 0.115833 -1.00884 -10.7143 7.68364 0.938771 -10.7891 13.884 2.92481 -0.0 0.0 -0.0 -0.431737 17.2895 1.36109 -9.07692 -31.3642 66.1949 1.41865 -35.096 0.448627 -84.821 -8.42955 5.18895 -1.09872 0.517064 -7.12751 -0.0 0.0 -0.0 4.90839 18.4826 -8.36964 -13.6538 18.7261 -66.2241 0.655717 17.9951 -0.103828 23.5726 -0.219913 2.98199 -0.642479 -28.8555 -7.78512 0.0 0.0 0.0 8.5038 29.6331 -11.5839 -12.2751 0.307693 1.85507 15.7545 -2.68006 -2.22594 -6.54226 0.0 0.0 -0.0 0.0 -0.0 6.86069 -2.70846 -7.25656 -10.4972 -0.287865 -1.58301 12.1263 -8.27297 1.71066 -15.8307 0.0 0.0 0.0 0.0 0.0 
3549.08908092 738.082 -1487.78829555 -2.87783224074 80.4620290676 6.16064288785 0.936831 0.0139975 -1.01537 0.937401 0.0785766 -1.01243 0.936101 0.2737 -0.977893 0.934785 0.115833 -1.00884 -10.7143 7.68364 0.938771 -10.7891 13.884 2.92481 -0.0 0.0 -0.0 -0.431737 17.2895 1.36109 -9.07692 -31.3642 66.1949 1.41865 -35.096 0.448627 -84.821 -8.42955 5.18895 -1.09872 0.517064 -7.12751 -0.0 0.0 -0.0 4.90839 18.4826 -8.36964 -13.6538 18.7261 -66.2241 0.655717 17.9951 -0.103828 23.5726 -0.219913 2.98199 -0.642479 -28.8555 -7.78512 0.0 0.0 0.0 8.5038 29.6331 -11.5839 -12.2751 0.307693 1.85507 15.7545 -2.68006 -2.22594 -6.54226 0.0 0.0 -0.0 0.0 -0.0 6.86069 -2.70846 -7.25656 -10.4972 -0.287865 -1.58301 12.1263 -8.27297 1.71066 -15.8307 0.0 0.0 0.0 0.0 0.0 
3550.02399917 738.082 -1489.46124868 -2.05902212316 76.6117758971 5.32563959213 0.936831 0.0139975 -1.01537 0.937401 0.0785766 -1.01243 0.936101 0.2737 -0.977893 0.934785 0.115833 -1.00884 -10.7143 7.68364 0.938771 -10.7891 13.884 2.92481 -0.0 0.0 -0.0 -0.431737 17.2895 1.36109 -9.07692 -31.3642 66.1949 1.41865 -35.096 0.448627 -84.821 -8.42955 5.18895 -1.09872 0.517064 -7.12751 -0.0 0.0 -0.0 4.90839 18.4826 -8.36964 -13.6538 18.7261 -66.2241 0.655717 17.9951 -0.103828 23.5726 -0.219913 2.98199 -0.642479 -28.8555 -7.78512 0.0 0.0 0.0 8.5038 29.6331 -11.5839 -12.2751 0.307693 1.85507 15.7545 -2.68006 -2.22594 -6.54226 0.0 0.0 -0.0 0.0 -0.0 6.86069 -2.70846 -7.25656 -10.4972 -0.287865 -1.58301 12.1263 -8.27297 1.71066 -15.8307 0.0 0.0 0.0 0.0 0.0 
3548.63873087 740.307 -1493.22357193 -2.12763488482 76.5057409089 5.66930880637 0.932292 0.064487 -0.979286 0.932817 0.126668 -0.973199 0.930726 0.313349 -0.930043 0.929556 0.162541 -0.967855 -10.8742 7.65101 1.12313 -10.9494 13.7116 3.11303 -0.0 0.0 -0.0 -0.845987 18.4667 0.882589 -9.38054 -31.2676 67.1606 1.42235 -35.1661 0.450755 -85.295 -8.48878 5.17724 -1.18776 0.408559 -7.77491 -0.0 0.0 -0.0 5.08203 18.5018 -8.7421 -12.7223 18.8875 -65.6512 0.6828 18.6876 -0.11235 24.6019 -0.201423 3.11217 -0.685138 -28.7394 -7.50825 0.0 0.0 0.0 9.23533 29.2318 -11.9791 -14.7113 0.321137 2.2286 16.9296 -2.33958 -2.37711 -6.54816 0.0 0.0 -0.0 0.0 -0.0 5.75012 -3.16966 -6.92988 -10.1123 -0.282462 -1.5242 13.8241 -9.21581 1.93832 -15.2698 0.0 0.0 0.0 0.0 0.0 
